# xmcd CD database file
#
# Track frame offsets:
#       150
#       8528
#       25227
#       45534
#       66570
#       89424
#       99530
#       122186
#       131936
#       152452
#       166838
#       186239
#       197027
#       218183
#
# Disc length: 3195 seconds
#
# Revision: 2
# Processed by: cddbd v1.5.2PL0 Copyright (c) Steve Scherf et al.
# Submitted via: jack 3.1.1
#
DISCID=c00c790e
DTITLE=Jon-Rae Fletcher and the River - The Road
DYEAR=1900
DGENRE=
TTITLE0=Introduction to the Road
TTITLE1=When I Die
TTITLE2=Carry On
TTITLE3=Open, Broken
TTITLE4=Holy Ghost
TTITLE5=Shine A Light
TTITLE6=It Shone
TTITLE7=Love Lifted Me
TTITLE8=Homeland
TTITLE9=In the Hall
TTITLE10=Till the Rising Sun
TTITLE11=Song of Harmony
TTITLE12=Further Along
TTITLE13=The Road
EXTD=
EXTT0=
EXTT1=
EXTT2=
EXTT3=
EXTT4=
EXTT5=
EXTT6=
EXTT7=
EXTT8=
EXTT9=
EXTT10=
EXTT11=
EXTT12=
EXTT13=
PLAYORDER=
